<?xml version="1.0" encoding="UTF-8"?>
<svg width="100" height="100" viewBox="0 0 100 100" xmlns="http://www.w3.org/2000/svg">
  <path d="M50 10 C 30 10, 15 25, 15 45 C 15 65, 30 80, 50 80 C 70 80, 85 65, 85 45 C 85 25, 70 10, 50 10" 
        fill="#FFA500" stroke="none"/>
  <path d="M35 35 L 35 50 L 45 50 L 45 35 Z" fill="#2C3E50"/>
  <path d="M55 35 L 55 50 L 65 50 L 65 35 Z" fill="#2C3E50"/>
  <path d="M45 55 C 45 60, 55 60, 55 55" fill="none" stroke="#2C3E50" stroke-width="2"/>
  <path d="M30 25 L 40 15" fill="none" stroke="#2C3E50" stroke-width="2"/>
  <path d="M70 25 L 60 15" fill="none" stroke="#2C3E50" stroke-width="2"/>
</svg> 