<?xml version="1.0" encoding="UTF-8" standalone="no"?>
<svg width="300" height="300" viewBox="0 0 300 300" xmlns="http://www.w3.org/2000/svg">
  <rect width="300" height="300" fill="white"/>
  
  <!-- QR码定位标记 - 左上 -->
  <g>
    <rect x="30" y="30" width="40" height="40" fill="black"/>
    <rect x="38" y="38" width="24" height="24" fill="white"/>
    <rect x="46" y="46" width="8" height="8" fill="black"/>
  </g>
  
  <!-- QR码定位标记 - 右上 -->
  <g>
    <rect x="230" y="30" width="40" height="40" fill="black"/>
    <rect x="238" y="38" width="24" height="24" fill="white"/>
    <rect x="246" y="46" width="8" height="8" fill="black"/>
  </g>
  
  <!-- QR码定位标记 - 左下 -->
  <g>
    <rect x="30" y="230" width="40" height="40" fill="black"/>
    <rect x="38" y="238" width="24" height="24" fill="white"/>
    <rect x="46" y="246" width="8" height="8" fill="black"/>
  </g>
  
  <!-- 微信Logo -->
  <g>
    <rect x="120" y="120" width="60" height="60" rx="8" ry="8" fill="black"/>
    <!-- 微信图标背景 -->
    <circle cx="150" cy="150" r="25" fill="white"/>
    
    <!-- 微信图标 - 简化版 -->
    <g transform="translate(130, 135) scale(0.4)">
      <!-- 左侧聊天气泡 -->
      <circle cx="30" cy="30" r="20" fill="black"/>
      <!-- 右侧聊天气泡 -->
      <circle cx="70" cy="45" r="20" fill="black"/>
    </g>
  </g>
  
  <!-- QR码数据点 - 更接近真实QR码的排列 -->
  <!-- 生成更多随机的点阵 -->
  <g fill="black">
    <!-- 上边区域数据点 -->
    <rect x="80" y="30" width="8" height="8"/>
    <rect x="88" y="30" width="8" height="8"/>
    <rect x="96" y="30" width="8" height="8"/>
    <rect x="104" y="30" width="8" height="8"/>
    <rect x="128" y="30" width="8" height="8"/>
    <rect x="136" y="30" width="8" height="8"/>
    <rect x="160" y="30" width="8" height="8"/>
    <rect x="176" y="30" width="8" height="8"/>
    <rect x="184" y="30" width="8" height="8"/>
    <rect x="192" y="30" width="8" height="8"/>
    
    <!-- 左边区域数据点 -->
    <rect x="30" y="80" width="8" height="8"/>
    <rect x="30" y="96" width="8" height="8"/>
    <rect x="30" y="104" width="8" height="8"/>
    <rect x="30" y="112" width="8" height="8"/>
    <rect x="30" y="128" width="8" height="8"/>
    <rect x="30" y="144" width="8" height="8"/>
    <rect x="30" y="152" width="8" height="8"/>
    <rect x="30" y="168" width="8" height="8"/>
    <rect x="30" y="176" width="8" height="8"/>
    <rect x="30" y="184" width="8" height="8"/>
    
    <!-- 右边区域数据点 -->
    <rect x="262" y="80" width="8" height="8"/>
    <rect x="262" y="88" width="8" height="8"/>
    <rect x="262" y="96" width="8" height="8"/>
    <rect x="262" y="120" width="8" height="8"/>
    <rect x="262" y="128" width="8" height="8"/>
    <rect x="262" y="136" width="8" height="8"/>
    <rect x="262" y="160" width="8" height="8"/>
    <rect x="262" y="176" width="8" height="8"/>
    <rect x="262" y="184" width="8" height="8"/>
    
    <!-- 底部区域数据点 -->
    <rect x="80" y="262" width="8" height="8"/>
    <rect x="96" y="262" width="8" height="8"/>
    <rect x="104" y="262" width="8" height="8"/>
    <rect x="120" y="262" width="8" height="8"/>
    <rect x="128" y="262" width="8" height="8"/>
    <rect x="144" y="262" width="8" height="8"/>
    <rect x="152" y="262" width="8" height="8"/>
    <rect x="160" y="262" width="8" height="8"/>
    <rect x="184" y="262" width="8" height="8"/>
    <rect x="192" y="262" width="8" height="8"/>
    
    <!-- 中心区域随机数据点 -->
    <rect x="80" y="80" width="8" height="8"/>
    <rect x="88" y="88" width="8" height="8"/>
    <rect x="96" y="96" width="8" height="8"/>
    <rect x="200" y="80" width="8" height="8"/>
    <rect x="192" y="88" width="8" height="8"/>
    <rect x="184" y="96" width="8" height="8"/>
    <rect x="80" y="200" width="8" height="8"/>
    <rect x="88" y="192" width="8" height="8"/>
    <rect x="96" y="184" width="8" height="8"/>
    <rect x="200" y="200" width="8" height="8"/>
    <rect x="192" y="192" width="8" height="8"/>
    <rect x="184" y="184" width="8" height="8"/>
    
    <!-- 添加更多随机数据点 -->
    <rect x="48" y="48" width="8" height="8"/>
    <rect x="56" y="56" width="8" height="8"/>
    <rect x="64" y="64" width="8" height="8"/>
    <rect x="72" y="72" width="8" height="8"/>
    <rect x="216" y="72" width="8" height="8"/>
    <rect x="224" y="64" width="8" height="8"/>
    <rect x="232" y="56" width="8" height="8"/>
    <rect x="240" y="48" width="8" height="8"/>
    <rect x="48" y="240" width="8" height="8"/>
    <rect x="56" y="232" width="8" height="8"/>
    <rect x="64" y="224" width="8" height="8"/>
    <rect x="72" y="216" width="8" height="8"/>
    
    <!-- 更多随机分布的点 -->
    <rect x="120" y="80" width="8" height="8"/>
    <rect x="130" y="90" width="8" height="8"/>
    <rect x="170" y="110" width="8" height="8"/>
    <rect x="180" y="120" width="8" height="8"/>
    <rect x="90" y="140" width="8" height="8"/>
    <rect x="100" y="150" width="8" height="8"/>
    <rect x="200" y="160" width="8" height="8"/>
    <rect x="210" y="170" width="8" height="8"/>
    <rect x="150" y="190" width="8" height="8"/>
    <rect x="160" y="200" width="8" height="8"/>
  </g>
</svg> 